<mxfile host="app.diagrams.net" modified="2024-05-31T09:30:07.279Z" agent="Mozilla/5.0 (Windows NT 10.0; Win64; x64) AppleWebKit/537.36 (KHTML, like Gecko) Chrome/125.0.0.0 Safari/537.36" etag="N1ZcEdi4OmZ37vmlAFdB" version="24.4.10" type="device">
  <diagram name="Page-1" id="xsnbrhp78Jszw3oWZE3-">
    <mxGraphModel dx="1400" dy="1796" grid="1" gridSize="10" guides="1" tooltips="1" connect="1" arrows="1" fold="1" page="1" pageScale="1" pageWidth="850" pageHeight="1100" math="0" shadow="0">
      <root>
        <mxCell id="0" />
        <mxCell id="1" parent="0" />
        <mxCell id="pgW6u7Oq3pnfEfQ7Ad5E-117" style="edgeStyle=orthogonalEdgeStyle;rounded=0;orthogonalLoop=1;jettySize=auto;html=1;entryX=0.5;entryY=0;entryDx=0;entryDy=0;" edge="1" parent="1" source="pgW6u7Oq3pnfEfQ7Ad5E-19" target="pgW6u7Oq3pnfEfQ7Ad5E-32">
          <mxGeometry relative="1" as="geometry">
            <Array as="points">
              <mxPoint x="90" y="182" />
              <mxPoint x="90" y="-322" />
              <mxPoint x="570" y="-322" />
            </Array>
          </mxGeometry>
        </mxCell>
        <mxCell id="pgW6u7Oq3pnfEfQ7Ad5E-122" style="edgeStyle=orthogonalEdgeStyle;rounded=0;orthogonalLoop=1;jettySize=auto;html=1;exitX=1;exitY=0.75;exitDx=0;exitDy=0;entryX=0;entryY=0.75;entryDx=0;entryDy=0;" edge="1" parent="1" source="pgW6u7Oq3pnfEfQ7Ad5E-19" target="pgW6u7Oq3pnfEfQ7Ad5E-27">
          <mxGeometry relative="1" as="geometry" />
        </mxCell>
        <mxCell id="pgW6u7Oq3pnfEfQ7Ad5E-19" value="Restaurant" style="swimlane;whiteSpace=wrap;html=1;" vertex="1" parent="1">
          <mxGeometry x="140" y="75" width="200" height="215" as="geometry">
            <mxRectangle x="80" y="90" width="140" height="30" as="alternateBounds" />
          </mxGeometry>
        </mxCell>
        <mxCell id="pgW6u7Oq3pnfEfQ7Ad5E-20" value="PRIMARY Id" style="text;html=1;align=center;verticalAlign=middle;whiteSpace=wrap;rounded=0;" vertex="1" parent="pgW6u7Oq3pnfEfQ7Ad5E-19">
          <mxGeometry x="25" y="40" width="150" height="30" as="geometry" />
        </mxCell>
        <mxCell id="pgW6u7Oq3pnfEfQ7Ad5E-22" value="text RestaurantName" style="text;html=1;align=center;verticalAlign=middle;whiteSpace=wrap;rounded=0;" vertex="1" parent="pgW6u7Oq3pnfEfQ7Ad5E-19">
          <mxGeometry x="40" y="70" width="120" height="30" as="geometry" />
        </mxCell>
        <mxCell id="pgW6u7Oq3pnfEfQ7Ad5E-23" value="text RestaurantAddres" style="text;html=1;align=center;verticalAlign=middle;whiteSpace=wrap;rounded=0;" vertex="1" parent="pgW6u7Oq3pnfEfQ7Ad5E-19">
          <mxGeometry x="35" y="100" width="130" height="30" as="geometry" />
        </mxCell>
        <mxCell id="pgW6u7Oq3pnfEfQ7Ad5E-25" value="text RestaurantType" style="text;html=1;align=center;verticalAlign=middle;whiteSpace=wrap;rounded=0;" vertex="1" parent="pgW6u7Oq3pnfEfQ7Ad5E-19">
          <mxGeometry x="40" y="130" width="120" height="30" as="geometry" />
        </mxCell>
        <mxCell id="pgW6u7Oq3pnfEfQ7Ad5E-64" value="FOREIGN CityID" style="text;html=1;align=center;verticalAlign=middle;whiteSpace=wrap;rounded=0;" vertex="1" parent="pgW6u7Oq3pnfEfQ7Ad5E-19">
          <mxGeometry x="45" y="160" width="110" height="30" as="geometry" />
        </mxCell>
        <mxCell id="pgW6u7Oq3pnfEfQ7Ad5E-112" style="edgeStyle=orthogonalEdgeStyle;rounded=0;orthogonalLoop=1;jettySize=auto;html=1;entryX=0.5;entryY=1;entryDx=0;entryDy=0;" edge="1" parent="1" source="pgW6u7Oq3pnfEfQ7Ad5E-27" target="pgW6u7Oq3pnfEfQ7Ad5E-102">
          <mxGeometry relative="1" as="geometry">
            <Array as="points">
              <mxPoint x="450" y="168" />
              <mxPoint x="450" y="20" />
              <mxPoint x="250" y="20" />
            </Array>
          </mxGeometry>
        </mxCell>
        <mxCell id="pgW6u7Oq3pnfEfQ7Ad5E-27" value="Order" style="swimlane;whiteSpace=wrap;html=1;" vertex="1" parent="1">
          <mxGeometry x="480" y="75" width="200" height="185" as="geometry" />
        </mxCell>
        <mxCell id="pgW6u7Oq3pnfEfQ7Ad5E-28" value="PRIMARY Id" style="text;html=1;align=center;verticalAlign=middle;whiteSpace=wrap;rounded=0;" vertex="1" parent="pgW6u7Oq3pnfEfQ7Ad5E-27">
          <mxGeometry x="20" y="35" width="160" height="30" as="geometry" />
        </mxCell>
        <mxCell id="pgW6u7Oq3pnfEfQ7Ad5E-29" value="FOREIGN RestaurantId" style="text;html=1;align=center;verticalAlign=middle;whiteSpace=wrap;rounded=0;" vertex="1" parent="pgW6u7Oq3pnfEfQ7Ad5E-27">
          <mxGeometry x="32.5" y="75" width="140" height="30" as="geometry" />
        </mxCell>
        <mxCell id="pgW6u7Oq3pnfEfQ7Ad5E-30" value="FOREIGN CustomerId" style="text;html=1;align=center;verticalAlign=middle;whiteSpace=wrap;rounded=0;" vertex="1" parent="pgW6u7Oq3pnfEfQ7Ad5E-27">
          <mxGeometry x="37.5" y="105" width="130" height="30" as="geometry" />
        </mxCell>
        <mxCell id="pgW6u7Oq3pnfEfQ7Ad5E-77" value="FOREIGN DeliveryCourierId" style="text;html=1;align=center;verticalAlign=middle;whiteSpace=wrap;rounded=0;" vertex="1" parent="pgW6u7Oq3pnfEfQ7Ad5E-27">
          <mxGeometry x="20" y="145" width="165" height="30" as="geometry" />
        </mxCell>
        <mxCell id="pgW6u7Oq3pnfEfQ7Ad5E-107" style="edgeStyle=orthogonalEdgeStyle;rounded=0;orthogonalLoop=1;jettySize=auto;html=1;entryX=1;entryY=0.5;entryDx=0;entryDy=0;" edge="1" parent="1" source="pgW6u7Oq3pnfEfQ7Ad5E-32" target="pgW6u7Oq3pnfEfQ7Ad5E-102">
          <mxGeometry relative="1" as="geometry" />
        </mxCell>
        <mxCell id="pgW6u7Oq3pnfEfQ7Ad5E-32" value="MenuItem" style="swimlane;whiteSpace=wrap;html=1;" vertex="1" parent="1">
          <mxGeometry x="460" y="-302.5" width="220" height="250" as="geometry" />
        </mxCell>
        <mxCell id="pgW6u7Oq3pnfEfQ7Ad5E-33" value="PRIMARY Id" style="text;html=1;align=center;verticalAlign=middle;whiteSpace=wrap;rounded=0;" vertex="1" parent="pgW6u7Oq3pnfEfQ7Ad5E-32">
          <mxGeometry x="30" y="40" width="160" height="30" as="geometry" />
        </mxCell>
        <mxCell id="pgW6u7Oq3pnfEfQ7Ad5E-34" value="text MenuItemName" style="text;html=1;align=center;verticalAlign=middle;whiteSpace=wrap;rounded=0;" vertex="1" parent="pgW6u7Oq3pnfEfQ7Ad5E-32">
          <mxGeometry x="30" y="70" width="160" height="30" as="geometry" />
        </mxCell>
        <mxCell id="pgW6u7Oq3pnfEfQ7Ad5E-35" value="text MenuItemName" style="text;html=1;align=center;verticalAlign=middle;whiteSpace=wrap;rounded=0;" vertex="1" parent="pgW6u7Oq3pnfEfQ7Ad5E-32">
          <mxGeometry x="30" y="100" width="160" height="30" as="geometry" />
        </mxCell>
        <mxCell id="pgW6u7Oq3pnfEfQ7Ad5E-47" value="FOREIGN MenuItemCategoryId" style="text;html=1;align=center;verticalAlign=middle;whiteSpace=wrap;rounded=0;" vertex="1" parent="pgW6u7Oq3pnfEfQ7Ad5E-32">
          <mxGeometry x="10" y="160" width="200" height="30" as="geometry" />
        </mxCell>
        <mxCell id="pgW6u7Oq3pnfEfQ7Ad5E-48" value="FOREIGN RestaurantId" style="text;html=1;align=center;verticalAlign=middle;whiteSpace=wrap;rounded=0;" vertex="1" parent="pgW6u7Oq3pnfEfQ7Ad5E-32">
          <mxGeometry x="10" y="190" width="200" height="30" as="geometry" />
        </mxCell>
        <mxCell id="pgW6u7Oq3pnfEfQ7Ad5E-49" value="decimal ItemPrice" style="text;html=1;align=center;verticalAlign=middle;whiteSpace=wrap;rounded=0;" vertex="1" parent="pgW6u7Oq3pnfEfQ7Ad5E-32">
          <mxGeometry x="30" y="130" width="160" height="30" as="geometry" />
        </mxCell>
        <mxCell id="pgW6u7Oq3pnfEfQ7Ad5E-42" style="edgeStyle=orthogonalEdgeStyle;rounded=0;orthogonalLoop=1;jettySize=auto;html=1;entryX=1;entryY=0.5;entryDx=0;entryDy=0;" edge="1" parent="1" source="pgW6u7Oq3pnfEfQ7Ad5E-37" target="pgW6u7Oq3pnfEfQ7Ad5E-32">
          <mxGeometry relative="1" as="geometry" />
        </mxCell>
        <mxCell id="pgW6u7Oq3pnfEfQ7Ad5E-37" value="MenuItemCategory" style="swimlane;whiteSpace=wrap;html=1;" vertex="1" parent="1">
          <mxGeometry x="830" y="-255" width="240" height="155" as="geometry" />
        </mxCell>
        <mxCell id="pgW6u7Oq3pnfEfQ7Ad5E-38" value="PRIMARY Id" style="text;html=1;align=center;verticalAlign=middle;whiteSpace=wrap;rounded=0;" vertex="1" parent="pgW6u7Oq3pnfEfQ7Ad5E-37">
          <mxGeometry x="35" y="45" width="170" height="30" as="geometry" />
        </mxCell>
        <mxCell id="pgW6u7Oq3pnfEfQ7Ad5E-39" value="text CategoryName" style="text;html=1;align=center;verticalAlign=middle;whiteSpace=wrap;rounded=0;" vertex="1" parent="pgW6u7Oq3pnfEfQ7Ad5E-37">
          <mxGeometry x="35" y="75" width="170" height="30" as="geometry" />
        </mxCell>
        <mxCell id="pgW6u7Oq3pnfEfQ7Ad5E-40" value="text CategoryType" style="text;html=1;align=center;verticalAlign=middle;whiteSpace=wrap;rounded=0;" vertex="1" parent="pgW6u7Oq3pnfEfQ7Ad5E-37">
          <mxGeometry x="35" y="105" width="170" height="30" as="geometry" />
        </mxCell>
        <mxCell id="pgW6u7Oq3pnfEfQ7Ad5E-43" value="1" style="text;html=1;align=center;verticalAlign=middle;whiteSpace=wrap;rounded=0;" vertex="1" parent="1">
          <mxGeometry x="790" y="-210" width="60" height="30" as="geometry" />
        </mxCell>
        <mxCell id="pgW6u7Oq3pnfEfQ7Ad5E-44" value="N" style="text;html=1;align=center;verticalAlign=middle;whiteSpace=wrap;rounded=0;" vertex="1" parent="1">
          <mxGeometry x="670" y="-210" width="60" height="30" as="geometry" />
        </mxCell>
        <mxCell id="pgW6u7Oq3pnfEfQ7Ad5E-74" style="edgeStyle=orthogonalEdgeStyle;rounded=0;orthogonalLoop=1;jettySize=auto;html=1;entryX=1;entryY=0.5;entryDx=0;entryDy=0;" edge="1" parent="1" source="pgW6u7Oq3pnfEfQ7Ad5E-58" target="pgW6u7Oq3pnfEfQ7Ad5E-27">
          <mxGeometry relative="1" as="geometry" />
        </mxCell>
        <mxCell id="pgW6u7Oq3pnfEfQ7Ad5E-58" value="Customer" style="swimlane;whiteSpace=wrap;html=1;" vertex="1" parent="1">
          <mxGeometry x="850" y="75" width="200" height="195" as="geometry" />
        </mxCell>
        <mxCell id="pgW6u7Oq3pnfEfQ7Ad5E-59" value="PRIMARY Id" style="text;html=1;align=center;verticalAlign=middle;whiteSpace=wrap;rounded=0;" vertex="1" parent="pgW6u7Oq3pnfEfQ7Ad5E-58">
          <mxGeometry x="20" y="35" width="160" height="30" as="geometry" />
        </mxCell>
        <mxCell id="pgW6u7Oq3pnfEfQ7Ad5E-60" value="text Username" style="text;html=1;align=center;verticalAlign=middle;whiteSpace=wrap;rounded=0;" vertex="1" parent="pgW6u7Oq3pnfEfQ7Ad5E-58">
          <mxGeometry x="20" y="65" width="160" height="30" as="geometry" />
        </mxCell>
        <mxCell id="pgW6u7Oq3pnfEfQ7Ad5E-61" value="text Email" style="text;html=1;align=center;verticalAlign=middle;whiteSpace=wrap;rounded=0;" vertex="1" parent="pgW6u7Oq3pnfEfQ7Ad5E-58">
          <mxGeometry x="20" y="95" width="160" height="30" as="geometry" />
        </mxCell>
        <mxCell id="pgW6u7Oq3pnfEfQ7Ad5E-66" value="FOREIGN OrderId" style="text;html=1;align=center;verticalAlign=middle;whiteSpace=wrap;rounded=0;" vertex="1" parent="pgW6u7Oq3pnfEfQ7Ad5E-58">
          <mxGeometry x="20" y="125" width="160" height="30" as="geometry" />
        </mxCell>
        <mxCell id="pgW6u7Oq3pnfEfQ7Ad5E-68" value="FOREIGN CityId" style="text;html=1;align=center;verticalAlign=middle;whiteSpace=wrap;rounded=0;" vertex="1" parent="pgW6u7Oq3pnfEfQ7Ad5E-58">
          <mxGeometry x="20" y="155" width="160" height="30" as="geometry" />
        </mxCell>
        <mxCell id="pgW6u7Oq3pnfEfQ7Ad5E-75" value="1" style="text;html=1;align=center;verticalAlign=middle;whiteSpace=wrap;rounded=0;" vertex="1" parent="1">
          <mxGeometry x="810" y="140" width="60" height="30" as="geometry" />
        </mxCell>
        <mxCell id="pgW6u7Oq3pnfEfQ7Ad5E-76" value="N" style="text;html=1;align=center;verticalAlign=middle;whiteSpace=wrap;rounded=0;" vertex="1" parent="1">
          <mxGeometry x="670" y="140" width="60" height="30" as="geometry" />
        </mxCell>
        <mxCell id="pgW6u7Oq3pnfEfQ7Ad5E-85" style="edgeStyle=orthogonalEdgeStyle;rounded=0;orthogonalLoop=1;jettySize=auto;html=1;entryX=0.5;entryY=1;entryDx=0;entryDy=0;" edge="1" parent="1" source="pgW6u7Oq3pnfEfQ7Ad5E-78" target="pgW6u7Oq3pnfEfQ7Ad5E-27">
          <mxGeometry relative="1" as="geometry" />
        </mxCell>
        <mxCell id="pgW6u7Oq3pnfEfQ7Ad5E-78" value="DeliveryCourier" style="swimlane;whiteSpace=wrap;html=1;" vertex="1" parent="1">
          <mxGeometry x="490" y="400" width="200" height="250" as="geometry" />
        </mxCell>
        <mxCell id="pgW6u7Oq3pnfEfQ7Ad5E-79" value="PRIMARY Id" style="text;html=1;align=center;verticalAlign=middle;whiteSpace=wrap;rounded=0;" vertex="1" parent="pgW6u7Oq3pnfEfQ7Ad5E-78">
          <mxGeometry x="20" y="40" width="160" height="30" as="geometry" />
        </mxCell>
        <mxCell id="pgW6u7Oq3pnfEfQ7Ad5E-80" value="text CourierName" style="text;html=1;align=center;verticalAlign=middle;whiteSpace=wrap;rounded=0;" vertex="1" parent="pgW6u7Oq3pnfEfQ7Ad5E-78">
          <mxGeometry x="20" y="70" width="160" height="30" as="geometry" />
        </mxCell>
        <mxCell id="pgW6u7Oq3pnfEfQ7Ad5E-81" value="smallint Age" style="text;html=1;align=center;verticalAlign=middle;whiteSpace=wrap;rounded=0;" vertex="1" parent="pgW6u7Oq3pnfEfQ7Ad5E-78">
          <mxGeometry x="20" y="110" width="160" height="30" as="geometry" />
        </mxCell>
        <mxCell id="pgW6u7Oq3pnfEfQ7Ad5E-82" value="FOREIGN CityId" style="text;html=1;align=center;verticalAlign=middle;whiteSpace=wrap;rounded=0;" vertex="1" parent="pgW6u7Oq3pnfEfQ7Ad5E-78">
          <mxGeometry x="20" y="190" width="160" height="30" as="geometry" />
        </mxCell>
        <mxCell id="pgW6u7Oq3pnfEfQ7Ad5E-84" value="decimal Rating" style="text;html=1;align=center;verticalAlign=middle;whiteSpace=wrap;rounded=0;" vertex="1" parent="pgW6u7Oq3pnfEfQ7Ad5E-78">
          <mxGeometry x="20" y="150" width="160" height="30" as="geometry" />
        </mxCell>
        <mxCell id="pgW6u7Oq3pnfEfQ7Ad5E-86" value="1" style="text;html=1;align=center;verticalAlign=middle;whiteSpace=wrap;rounded=0;" vertex="1" parent="1">
          <mxGeometry x="580" y="370" width="60" height="30" as="geometry" />
        </mxCell>
        <mxCell id="pgW6u7Oq3pnfEfQ7Ad5E-87" value="N" style="text;html=1;align=center;verticalAlign=middle;whiteSpace=wrap;rounded=0;" vertex="1" parent="1">
          <mxGeometry x="570" y="290" width="60" height="30" as="geometry" />
        </mxCell>
        <mxCell id="pgW6u7Oq3pnfEfQ7Ad5E-92" style="edgeStyle=orthogonalEdgeStyle;rounded=0;orthogonalLoop=1;jettySize=auto;html=1;entryX=1;entryY=0.5;entryDx=0;entryDy=0;" edge="1" parent="1" source="pgW6u7Oq3pnfEfQ7Ad5E-88" target="pgW6u7Oq3pnfEfQ7Ad5E-58">
          <mxGeometry relative="1" as="geometry">
            <Array as="points">
              <mxPoint x="1100" y="470" />
              <mxPoint x="1100" y="172" />
            </Array>
          </mxGeometry>
        </mxCell>
        <mxCell id="pgW6u7Oq3pnfEfQ7Ad5E-88" value="City" style="swimlane;whiteSpace=wrap;html=1;" vertex="1" parent="1">
          <mxGeometry x="840" y="435" width="200" height="115" as="geometry" />
        </mxCell>
        <mxCell id="pgW6u7Oq3pnfEfQ7Ad5E-89" value="PRIMARY Id" style="text;html=1;align=center;verticalAlign=middle;whiteSpace=wrap;rounded=0;" vertex="1" parent="pgW6u7Oq3pnfEfQ7Ad5E-88">
          <mxGeometry x="20" y="35" width="160" height="30" as="geometry" />
        </mxCell>
        <mxCell id="pgW6u7Oq3pnfEfQ7Ad5E-90" value="text CityName" style="text;html=1;align=center;verticalAlign=middle;whiteSpace=wrap;rounded=0;" vertex="1" parent="pgW6u7Oq3pnfEfQ7Ad5E-88">
          <mxGeometry x="20" y="75" width="160" height="30" as="geometry" />
        </mxCell>
        <mxCell id="pgW6u7Oq3pnfEfQ7Ad5E-93" style="edgeStyle=orthogonalEdgeStyle;rounded=0;orthogonalLoop=1;jettySize=auto;html=1;entryX=0.5;entryY=1;entryDx=0;entryDy=0;exitX=0;exitY=0.75;exitDx=0;exitDy=0;" edge="1" parent="1" source="pgW6u7Oq3pnfEfQ7Ad5E-88" target="pgW6u7Oq3pnfEfQ7Ad5E-78">
          <mxGeometry relative="1" as="geometry">
            <mxPoint x="1150" y="525" as="sourcePoint" />
            <Array as="points">
              <mxPoint x="840" y="525" />
              <mxPoint x="810" y="525" />
              <mxPoint x="810" y="680" />
              <mxPoint x="590" y="680" />
            </Array>
          </mxGeometry>
        </mxCell>
        <mxCell id="pgW6u7Oq3pnfEfQ7Ad5E-94" style="edgeStyle=orthogonalEdgeStyle;rounded=0;orthogonalLoop=1;jettySize=auto;html=1;entryX=0.5;entryY=1;entryDx=0;entryDy=0;exitX=0.5;exitY=1;exitDx=0;exitDy=0;" edge="1" parent="1" source="pgW6u7Oq3pnfEfQ7Ad5E-88" target="pgW6u7Oq3pnfEfQ7Ad5E-19">
          <mxGeometry relative="1" as="geometry">
            <mxPoint x="1250" y="550" as="sourcePoint" />
            <Array as="points">
              <mxPoint x="940" y="720" />
              <mxPoint x="240" y="720" />
            </Array>
          </mxGeometry>
        </mxCell>
        <mxCell id="pgW6u7Oq3pnfEfQ7Ad5E-95" value="N" style="text;html=1;align=center;verticalAlign=middle;whiteSpace=wrap;rounded=0;" vertex="1" parent="1">
          <mxGeometry x="1040" y="140" width="60" height="30" as="geometry" />
        </mxCell>
        <mxCell id="pgW6u7Oq3pnfEfQ7Ad5E-96" value="1" style="text;html=1;align=center;verticalAlign=middle;whiteSpace=wrap;rounded=0;" vertex="1" parent="1">
          <mxGeometry x="1020" y="440" width="60" height="30" as="geometry" />
        </mxCell>
        <mxCell id="pgW6u7Oq3pnfEfQ7Ad5E-97" value="1" style="text;html=1;align=center;verticalAlign=middle;whiteSpace=wrap;rounded=0;" vertex="1" parent="1">
          <mxGeometry x="790" y="500" width="60" height="30" as="geometry" />
        </mxCell>
        <mxCell id="pgW6u7Oq3pnfEfQ7Ad5E-98" value="N" style="text;html=1;align=center;verticalAlign=middle;whiteSpace=wrap;rounded=0;" vertex="1" parent="1">
          <mxGeometry x="580" y="650" width="60" height="30" as="geometry" />
        </mxCell>
        <mxCell id="pgW6u7Oq3pnfEfQ7Ad5E-99" value="1" style="text;html=1;align=center;verticalAlign=middle;whiteSpace=wrap;rounded=0;" vertex="1" parent="1">
          <mxGeometry x="920" y="550" width="60" height="30" as="geometry" />
        </mxCell>
        <mxCell id="pgW6u7Oq3pnfEfQ7Ad5E-100" value="N" style="text;html=1;align=center;verticalAlign=middle;whiteSpace=wrap;rounded=0;" vertex="1" parent="1">
          <mxGeometry x="240" y="300" width="60" height="30" as="geometry" />
        </mxCell>
        <mxCell id="pgW6u7Oq3pnfEfQ7Ad5E-102" value="MenuItemsOrder" style="swimlane;whiteSpace=wrap;html=1;" vertex="1" parent="1">
          <mxGeometry x="150" y="-240" width="200" height="157.5" as="geometry" />
        </mxCell>
        <mxCell id="pgW6u7Oq3pnfEfQ7Ad5E-104" value="PRIMARY Id" style="text;html=1;align=center;verticalAlign=middle;whiteSpace=wrap;rounded=0;" vertex="1" parent="pgW6u7Oq3pnfEfQ7Ad5E-102">
          <mxGeometry x="20" y="37.5" width="160" height="30" as="geometry" />
        </mxCell>
        <mxCell id="pgW6u7Oq3pnfEfQ7Ad5E-105" value="FOREIGN MenuItemId" style="text;html=1;align=center;verticalAlign=middle;whiteSpace=wrap;rounded=0;" vertex="1" parent="pgW6u7Oq3pnfEfQ7Ad5E-102">
          <mxGeometry x="20" y="75" width="160" height="30" as="geometry" />
        </mxCell>
        <mxCell id="pgW6u7Oq3pnfEfQ7Ad5E-106" value="FOREIGN OrderId" style="text;html=1;align=center;verticalAlign=middle;whiteSpace=wrap;rounded=0;" vertex="1" parent="pgW6u7Oq3pnfEfQ7Ad5E-102">
          <mxGeometry x="20" y="107.5" width="160" height="30" as="geometry" />
        </mxCell>
        <mxCell id="pgW6u7Oq3pnfEfQ7Ad5E-109" value="1" style="text;html=1;align=center;verticalAlign=middle;whiteSpace=wrap;rounded=0;" vertex="1" parent="1">
          <mxGeometry x="410" y="-210" width="60" height="30" as="geometry" />
        </mxCell>
        <mxCell id="pgW6u7Oq3pnfEfQ7Ad5E-110" value="N" style="text;html=1;align=center;verticalAlign=middle;whiteSpace=wrap;rounded=0;" vertex="1" parent="1">
          <mxGeometry x="340" y="-192.5" width="60" height="30" as="geometry" />
        </mxCell>
        <mxCell id="pgW6u7Oq3pnfEfQ7Ad5E-113" value="1" style="text;html=1;align=center;verticalAlign=middle;whiteSpace=wrap;rounded=0;" vertex="1" parent="1">
          <mxGeometry x="430" y="140" width="60" height="30" as="geometry" />
        </mxCell>
        <mxCell id="pgW6u7Oq3pnfEfQ7Ad5E-114" value="M" style="text;html=1;align=center;verticalAlign=middle;whiteSpace=wrap;rounded=0;" vertex="1" parent="1">
          <mxGeometry x="230" y="-80" width="60" height="30" as="geometry" />
        </mxCell>
        <mxCell id="pgW6u7Oq3pnfEfQ7Ad5E-118" value="1" style="text;html=1;align=center;verticalAlign=middle;whiteSpace=wrap;rounded=0;" vertex="1" parent="1">
          <mxGeometry x="90" y="150" width="60" height="30" as="geometry" />
        </mxCell>
        <mxCell id="pgW6u7Oq3pnfEfQ7Ad5E-119" value="N" style="text;html=1;align=center;verticalAlign=middle;whiteSpace=wrap;rounded=0;" vertex="1" parent="1">
          <mxGeometry x="520" y="-360" width="60" height="30" as="geometry" />
        </mxCell>
        <mxCell id="pgW6u7Oq3pnfEfQ7Ad5E-123" value="1" style="text;html=1;align=center;verticalAlign=middle;whiteSpace=wrap;rounded=0;" vertex="1" parent="1">
          <mxGeometry x="320" y="210" width="60" height="30" as="geometry" />
        </mxCell>
        <mxCell id="pgW6u7Oq3pnfEfQ7Ad5E-124" value="N" style="text;html=1;align=center;verticalAlign=middle;whiteSpace=wrap;rounded=0;" vertex="1" parent="1">
          <mxGeometry x="430" y="190" width="60" height="30" as="geometry" />
        </mxCell>
      </root>
    </mxGraphModel>
  </diagram>
</mxfile>
